<svg xmlns="http://www.w3.org/2000/svg" width="200" height="72" style="background-color:#fff" viewBox="-0.5 -0.5 493 72"><rect width="100%" height="100%" fill="#fff"/><path stroke="#fff" stroke-width="2" d="M142 1h10v10h-10zM142 11h10v10h-10zM142 21h10v10h-10zM142 31h10v10h-10zM142 41h10v10h-10zM142 51h10v10h-10zM142 61h10v10h-10zM152 1h10v10h-10zM162 1h10v10h-10zM172 1h10v10h-10zM182 11h10v10h-10zM182 21h10v10h-10zM152 31h10v10h-10zM162 31h10v10h-10zM172 31h10v10h-10zM202 11h10v10h-10zM202 21h10v10h-10zM202 31h10v10h-10zM202 41h10v10h-10zM202 51h10v10h-10zM212 61h10v10h-10zM222 61h10v10h-10zM232 61h10v10h-10zM212 1h10v10h-10zM222 1h10v10h-10zM232 1h10v10h-10zM242 51h10v10h-10zM242 11h10v10h-10zM262 31h10v10h-10zM272 31h10v10h-10zM282 31h10v10h-10zM292 31h10v10h-10zM302 31h10v10h-10zM292 21h10v10h-10zM292 41h10v10h-10zM282 51h10v10h-10zM282 11h10v10h-10zM322 31h10v10h-10zM332 31h10v10h-10zM342 31h10v10h-10zM352 31h10v10h-10zM362 31h10v10h-10zM352 21h10v10h-10zM352 41h10v10h-10zM342 51h10v10h-10zM342 11h10v10h-10zM382 1h10v10h-10zM382 11h10v10h-10zM382 21h10v10h-10zM382 31h10v10h-10zM382 41h10v10h-10zM382 51h10v10h-10zM382 61h10v10h-10zM392 11h10v10h-10zM402 21h10v10h-10zM402 31h10v10h-10zM412 11h10v10h-10zM422 1h10v10h-10zM422 11h10v10h-10zM422 21h10v10h-10zM422 31h10v10h-10zM422 41h10v10h-10zM422 51h10v10h-10zM422 61h10v10h-10zM442 1h10v10h-10zM452 1h10v10h-10zM462 1h10v10h-10zM472 1h10v10h-10zM442 61h10v10h-10zM452 61h10v10h-10zM462 61h10v10h-10zM472 61h10v10h-10zM452 11h10v10h-10zM452 21h10v10h-10zM452 31h10v10h-10zM452 41h10v10h-10zM452 51h10v10h-10zM482 11h10v10h-10zM482 21h10v10h-10zM482 31h10v10h-10zM482 41h10v10h-10zM482 51h10v10h-10z" pointer-events="all"/><svg xmlns="http://www.w3.org/2000/svg" width="113.08" height="60" x="-.5" y="5.5" class="jss127" style="font-family:initial" viewBox="0 0 98 52"><g fill-rule="evenodd"><path fill-rule="nonzero" d="m5.756 14.036 2.101 2.14c-2.173 2.135-3.623 4.401-4.303 6.721l-.101.367-2.906-.748c.776-3.013 2.552-5.872 5.209-8.48m17.82-9.795.902 2.861c-5.329 1.682-9.916 3.879-13.464 6.436l-.438.322-1.796-2.403c3.894-2.91 8.94-5.368 14.796-7.216M47.825.5l.054 3c-6.79.122-13.336.962-19.288 2.445l-.846.216-.76-2.902C33.395 1.581 40.477.632 47.825.5M92.67 14.036l-2.101 2.14c2.173 2.135 3.624 4.401 4.303 6.721l.101.367 2.906-.748c-.776-3.013-2.552-5.872-5.209-8.48M74.85 4.241l-.902 2.861c5.329 1.682 9.916 3.879 13.464 6.436l.438.322 1.796-2.403c-3.893-2.91-8.94-5.368-14.796-7.216M50.601.5l-.054 3c6.79.122 13.336.962 19.288 2.445l.846.216.76-2.902C65.031 1.581 57.95.632 50.601.5M5.756 37.964l2.101-2.14c-2.173-2.135-3.623-4.401-4.303-6.721l-.101-.367-2.906.748c.776 3.013 2.552 5.872 5.209 8.48m17.82 9.795.902-2.861c-5.329-1.682-9.916-3.879-13.464-6.436l-.438-.322-1.796 2.403c3.894 2.91 8.94 5.368 14.796 7.216M47.825 51.5l.054-3c-6.79-.122-13.336-.962-19.288-2.445l-.846-.216-.76 2.902c6.41 1.678 13.492 2.627 20.84 2.759M92.67 37.964l-2.101-2.14c2.173-2.135 3.624-4.401 4.303-6.721l.101-.367 2.906.748c-.776 3.013-2.552 5.872-5.209 8.48m-17.82 9.795-.902-2.861c5.329-1.682 9.916-3.879 13.464-6.436l.438-.322 1.796 2.403c-3.893 2.91-8.94 5.368-14.796 7.216M50.601 51.5l-.054-3c6.79-.122 13.336-.962 19.288-2.445l.846-.216.76 2.902c-6.41 1.678-13.492 2.627-20.84 2.759"/><path d="M53.259 20.337c6.582-5.574 6.582-5.574 14.753-12.436C62.599 6.72 56.322 6 49.946 6c-6.485 0-12.82.747-18.303 1.966 6.675 5.894 7.084 6.191 14.006 12.252 3.48-.293 3.97-.293 7.61.12zm-16.332 4.167c.992-1.544 2.25-2.448 5.124-3.474-5.486-4.744-7.34-6.324-14.003-12.173-11.485 3.264-19.33 9.02-20.049 15.647zm24.232 0c14.02 0 20.615 0 30.732-.004-.789-6.629-8.72-12.468-20.269-15.706-2.061 1.766-11.14 9.316-14.827 12.484 1.793.813 3.226 1.35 4.364 3.226m-20.163 6.098c-2.045-.884-3.476-1.935-4.042-3.102-1.056 0-26.431 0-28.782.039C9.53 33.6 16.924 38.847 27.455 41.964c4.236-3.528 8.255-6.948 13.541-11.362M49.946 45c6.284 0 12.247-.64 17.6-1.79-4.721-4.135-7.729-6.721-13.454-11.689-3.681.692-6.213.59-9.6.068-4.888 4.125-10.974 9.218-13.473 11.324C36.707 44.248 43.137 45 49.946 45m7.524-14.55c4.38 3.707 9.262 8.068 13.687 11.884 11.265-3.066 19.178-8.5 20.57-14.83H61.18c-.667.999-1.516 1.917-3.71 2.946"/></g></svg></svg>